<?xml version="1.0" encoding="utf-8"?>
<!-- Generator: Adobe Illustrator 16.0.0, SVG Export Plug-In . SVG Version: 6.00 Build 0)  -->
<!DOCTYPE svg PUBLIC "-//W3C//DTD SVG 1.1//EN" "http://www.w3.org/Graphics/SVG/1.1/DTD/svg11.dtd">
<svg version="1.1" id="Layer_1" xmlns="http://www.w3.org/2000/svg" xmlns:xlink="http://www.w3.org/1999/xlink" x="0px" y="0px"
	 width="576px" height="576px" viewBox="0 0 576 576" enable-background="new 0 0 576 576" xml:space="preserve">
<g>
	<g>
		<circle fill="currentColor" cx="287.104" cy="287.088" r="287"/>
	</g>
	<g>
		<g>
			<path fill="#FFFFFF" d="M282.661,357.013H114.16c-0.969,0-1.43,0.715-1.033,1.598l6.694,14.913
				c0.398,0.886,1.507,1.604,2.472,1.604h160.369h6.812h158.034c0.973,0,2.104-0.698,2.554-1.562l7.696-14.997
				c0.442-0.863,0.016-1.556-0.953-1.556H289.473H282.661z"/>
		</g>
		<g>
			<path fill="#FFFFFF" d="M458.76,365.485v61.648c0,1.29-1.042,2.337-2.329,2.337h-43.243c-1.298,0-2.343-1.047-2.343-2.337
				v-46.161c0-1.291,1.045-2.337,2.343-2.337h35.69c1.286,0,2.797-0.941,3.357-2.104l5.501-11.284
				C458.3,364.089,458.76,364.193,458.76,365.485z"/>
		</g>
		<g>
			<path fill="#FFFFFF" d="M112.018,366.068v60.483c0,1.294,1.049,2.337,2.339,2.337h42.072c1.288,0,2.339-1.043,2.339-2.337
				v-45.579c0-1.291-1.051-2.337-2.339-2.337h-35.692c-1.295,0-2.749-0.967-3.258-2.147l-4.54-10.61
				C112.429,364.691,112.018,364.779,112.018,366.068z"/>
		</g>
		<g>
			<path fill="#FFFFFF" d="M164.519,379.331c-1.29,0-2.334,1.045-2.334,2.34v19.863c0,1.289,1.044,2.337,2.334,2.337h118.238h119.98
				c3.041,0,4.089-1.048,4.089-2.337v-19.863c0-1.295-1.048-2.34-2.338-2.34h-119.98H164.519z"/>
		</g>
		<path fill="#FFFFFF" d="M422.285,217.421l-24.395-64.939c-1.525-4.113-5.83-6.058-11.214-6.058h-203.96
			c-5.392,0-9.682,1.955-11.188,6.094l-23.898,65.231c-0.684,1.877-0.461,3.084,0.621,4.632c1.083,1.545,2.854,1.673,4.855,1.673
			h263.731c2.007,0,3.775-0.283,4.854-1.835C422.77,220.664,422.991,219.3,422.285,217.421z M180.892,156.414
			c0.325-0.86,0.537-1.719,0.629-1.852c0.111-0.024,0.352-0.565,0.778-0.565h204.772c0.432,0,0.673,1,0.785,1.023
			c0.087,0.134,0.303,0.048,0.628,0.913l21.217,56.758H159.674L180.892,156.414z"/>
		<g>
			<path fill="#FFFFFF" d="M461.416,206.015l-9.624-5.776c-1.112-0.665-3.055-1.206-4.345-1.206H431.48
				c-1.294,0-2.343,1.049-2.343,2.339v18.312c0,1.294-0.868,2.337-1.945,2.337c-1.082,0-1.95,1.05-1.95,2.336v2.728H287.719h-4.659
				H145.472v-2.728c0-1.287-0.872-2.336-1.942-2.336c-1.081,0-1.952-1.043-1.952-2.337v-18.312c0-1.29-1.045-2.339-2.34-2.339
				H123.27c-1.295,0-3.238,0.541-4.346,1.206l-9.627,5.776c-1.107,0.663-2,2.247-2,3.542v10.127c0,1.294,0.637,3.166,1.422,4.19
				l1.046,1.359c0.789,1.023,2.474,1.853,3.763,1.853h26.492h2.774l-28.731,49.831c-1.127,1.956-2.045,5.373-2.045,7.629v57.08
				c0,6.454,5.232,11.682,11.686,11.682h159.356h4.659h159.356c6.454,0,11.685-5.228,11.685-11.682v-57.08
				c0-2.256-0.907-5.674-2.04-7.629l-28.729-49.831h2.708h26.488c1.292,0,2.977-0.829,3.761-1.855l1.046-1.356
				c0.793-1.025,1.429-2.896,1.429-4.19v-10.127C463.423,208.262,462.527,206.678,461.416,206.015z M203.178,308.932
				c0,2.262-1.831,4.092-4.092,4.092h-53.759c-8.067,0-14.609-6.541-14.609-14.613v-14.639c0-1.295,1.047-2.34,2.337-2.34h61.36
				c4.842,0,8.763,3.93,8.763,8.767V308.932z M354.924,314.341H214.088v-4.086h140.836V314.341z M354.924,301.487H214.088v-4.092
				h140.836V301.487z M355.249,288.048H214.416v-4.092h140.833V288.048z M435.917,281.431c1.29,0,2.332,1.045,2.332,2.34v14.639
				c0,8.072-6.539,14.613-14.607,14.613h-53.756c-2.265,0-4.093-1.83-4.093-4.092v-18.733c0-4.837,3.921-8.767,8.768-8.767H435.917z
				"/>
		</g>
		<path fill="#FFFFFF" d="M381.057,138.416c-1.339-0.727-15.79-7.473-87.736-8.324v-0.059l-4.72,0.024l-4.75-0.015v0.05
			c-78.61,0.869-92.067,7.922-92.725,8.208l-13.659,6.231h212.289L381.057,138.416z"/>
	</g>
</g>
</svg>
