<?xml version="1.0" encoding="utf-8"?>
<!-- Generator: Adobe Illustrator 24.2.3, SVG Export Plug-In . SVG Version: 6.00 Build 0)  -->
<svg version="1.1" id="Layer_1" xmlns="http://www.w3.org/2000/svg" xmlns:xlink="http://www.w3.org/1999/xlink" x="0px" y="0px"
	 viewBox="0 0 100 100" style="enable-background:new 0 0 100 100;" xml:space="preserve">

<g>
	<path fill="currentColor" d="M99.4,50c0,27.4-22.1,49.5-49.5,49.6S0.4,77.4,0.4,50c0-27.3,22.1-49.5,49.4-49.6c27.3-0.1,49.6,22,49.7,49.3
		C99.4,49.8,99.4,49.9,99.4,50z"/>
	<path fill="#FFFF" d="M49,45.8c-7.5,0-13.5-6.1-13.5-13.6c0-7.5,6.2-13.5,13.7-13.5c7.5,0,13.5,6.1,13.5,13.6
		C62.6,39.8,56.5,45.9,49,45.8C49,45.8,49,45.8,49,45.8z M48.2,42.6h2.5v-2.4l0.6-0.2c2.5-0.8,3.8-2.2,3.9-4.4s-1-3.7-3.5-4.8
		c-0.9-0.4-1.8-0.7-2.6-1.1c-0.7-0.3-1.4-0.8-1.1-1.7c0.2-0.8,1-1.3,1.8-1.1c1.4,0.1,2.7,0.3,4.2,0.5c0.1-0.6,0.3-1.2,0.5-1.7
		c0.3-0.8,0-1.1-0.7-1.3L51,23.8l-0.1-2.1h-2.6c0.5,1.8-0.4,2.4-1.9,3.1c-2.1,0.9-3,3.4-2.1,5.5c0.4,0.8,1,1.5,1.8,2
		c0.9,0.5,1.8,0.9,2.7,1.2c0.7,0.3,1.3,0.6,1.9,1c0.7,0.4,0.8,1.2,0.5,1.9c-0.2,0.3-0.5,0.5-0.9,0.6c-0.6,0.2-1.3,0.3-2,0.2
		c-1.3-0.2-2.5-0.5-3.8-0.8c-0.2,0.6-0.3,1.2-0.5,1.8c-0.3,0.8-0.1,1.2,0.7,1.4c1.1,0.3,2.2,0.5,3.4,0.8L48.2,42.6z"/>
	<path fill="#FFFF" d="M84.8,58.2v14.6c-1.4,0.1-2.8,0.3-4.1,0.6c-10.2,2.7-20.5,5.4-30.7,8.1c-0.9,0.2-1.8,0.5-2.8,0.7
		c-1.6,0.4-3.3,0.1-4.6-0.9c-7-5.4-14-10.7-21-16c-0.7-0.5-1.4-1-2-1.5c-2.4-1.8-2.9-5.3-1.1-7.7c0,0,0-0.1,0.1-0.1
		c2-2.2,5.4-2.5,7.7-0.7c5,3.8,10.3,7.2,15.5,10.8c0.4,0.3,1,0.3,1.4,0.2c5.1-1.3,10.1-2.7,15.2-4.2c1.3-0.5,2-1.8,1.7-3.2
		c-0.2-1.5-1.4-2.5-2.8-2.5c-2.8,0-5.6,0-8.4,0c-1.4,0-2.7-0.8-3.2-2.1c-0.7-1.2-0.5-2.8,0.5-3.8c0.6-0.7,1.5-1.2,2.4-1.3
		c5.3-0.1,10.7-0.2,16-0.1c2.8,0.2,5.6,1.2,7.8,3c0.9,0.6,1.8,1.3,2.6,2C77.8,56.7,80.9,58.3,84.8,58.2z"/>
</g>
</svg>
