<?xml version="1.0" encoding="utf-8"?>
<!-- Generator: Adobe Illustrator 25.0.0, SVG Export Plug-In . SVG Version: 6.00 Build 0)  -->
<svg version="1.1" id="Layer_1" xmlns="http://www.w3.org/2000/svg" xmlns:xlink="http://www.w3.org/1999/xlink" x="0px" y="0px"
	 viewBox="0 0 100 100" style="enable-background:new 0 0 100 100;" xml:space="preserve">

<path fill="currentColor" d="M99.8,50c0,27.5-22.3,49.8-49.8,49.8S0.2,77.5,0.2,50S22.5,0.1,50,0.1h0.1C77.6,0.2,99.8,22.5,99.8,50z"/>
<path fill="#FFFF" d="M35.5,28.6c3.8,0.1,6.8,0.4,9.7,1.8c1,0.5,1.9,1.1,2.8,1.8c1.6,1.2,1.9,3.5,0.7,5.1c-0.2,0.3-0.5,0.5-0.7,0.7
	c-1,0.9-2.2,1.6-3.4,2.1c-5.4,2.1-11.3,2.1-16.7,0c-1.1-0.4-2.2-1.1-3.2-1.9c-2.2-1.9-2.2-4.3-0.1-6.3c2-1.6,4.4-2.7,6.9-3
	C33,28.8,34.6,28.7,35.5,28.6z"/>
<path fill="#FFFF" d="M67.8,40.9c3.2-0.1,6.3,0.4,9.3,1.6c1.1,0.5,2.1,1,2.9,1.8c2.4,2,2.3,4.5-0.1,6.5c-0.9,0.8-2,1.4-3.1,1.8
	c-5.3,2-11.2,2-16.6,0c-1.2-0.5-2.3-1.2-3.3-2c-2.1-1.8-2.1-4.2,0-6.1c2-1.7,4.5-2.8,7.1-3.1C65.5,41,67,41,67.8,40.9z"/>
<path fill="#FFFF" d="M23.2,40.3c4.5,6.6,21.7,6.4,25.8,0c0.6,1,0.4,2.3-0.4,3.2c-0.9,1.1-2.1,2-3.4,2.7c-5.8,2.6-12.4,2.6-18.2,0
	c-1.3-0.7-2.5-1.6-3.4-2.7C22.8,42.6,22.7,41.3,23.2,40.3z"/>
<path fill="#FFFF" d="M55.7,52.4c1.6,2.5,3.9,3.5,6.4,4.2c4,1.1,8.2,1.2,12.2,0.2c2.8-0.7,5.4-1.7,7.2-4.3c0.5,1.4,0.1,3-1,4.1
	c-1.6,1.5-3.7,2.6-5.9,3c-4.8,1.3-9.8,1-14.4-0.8c-1.4-0.6-2.7-1.5-3.8-2.6C55.4,55.2,55.1,53.6,55.7,52.4z"/>
<path fill="#FFFF" d="M23.2,46.5c1.8,2.6,4.2,3.6,6.9,4.3c3.8,1,7.9,1,11.7,0.1c2.8-0.7,5.4-1.7,7.1-4.3c0.6,1.4,0.2,3.1-1,4.1
	c-1.8,1.6-4,2.7-6.4,3.1C37,54.9,32.3,54.6,28,53c-1.5-0.7-2.9-1.6-4.1-2.7C22.9,49.3,22.6,47.8,23.2,46.5z"/>
<path fill="#FFFF" d="M55.7,58.7c1.9,2.8,4.6,3.8,7.5,4.4c3.9,1,7.8,0.9,11.6-0.1c2.6-0.7,5-1.7,6.6-4.2c0.6,1.1,0.4,2.5-0.5,3.4
	c-1.2,1.2-2.6,2.2-4.1,2.9c-5.3,2.1-11.2,2.1-16.6,0c-1.4-0.6-2.7-1.5-3.8-2.5C55.3,61.6,55,60,55.7,58.7z"/>
<path fill="#FFFF" d="M23.2,59.3c2.2,3,5.3,4,8.6,4.6c3.7,0.7,7.6,0.5,11.2-0.6c2.4-0.6,4.5-2,5.9-4c0.6,1.1,0.4,2.6-0.5,3.5
	c-1,1.1-2.2,2-3.6,2.6c-5.6,2.4-12,2.4-17.5,0c-1.4-0.7-2.6-1.6-3.6-2.7C22.9,61.8,22.7,60.4,23.2,59.3z"/>
<path fill="#FFFF" d="M23.2,53c4.3,6.5,21.5,6.5,25.8,0c0.6,1,0.4,2.4-0.4,3.2c-1,1.1-2.1,2-3.4,2.7c-5.7,2.5-12.3,2.5-18,0
	c-1.2-0.6-2.3-1.4-3.2-2.4C23,55.6,22.7,54.2,23.2,53z"/>
<path fill="#FFFF" d="M55.7,65.2c4.4,6.5,21.5,6.5,25.8,0c0.6,1.2,0.3,2.6-0.7,3.6s-2.1,1.8-3.4,2.4c-5.7,2.5-12.1,2.5-17.8,0
	c-1.3-0.6-2.5-1.5-3.4-2.5C55.3,67.8,55.1,66.4,55.7,65.2z"/>
<path fill="#FFFF" d="M49.1,65.7c0.6,1.5,0.1,3.1-1.1,4.1c-1.8,1.6-4.1,2.7-6.5,3.1c-4.4,1.1-9,0.8-13.3-0.8
	c-1.5-0.7-2.9-1.6-4.1-2.7c-1-0.9-1.4-2.4-0.8-3.7c3.4,4.1,8.2,4.9,13,4.9C41.1,70.6,45.7,69.8,49.1,65.7z"/>
</svg>
