<?xml version="1.0" encoding="utf-8"?>
<!-- Generator: Adobe Illustrator 24.2.3, SVG Export Plug-In . SVG Version: 6.00 Build 0)  -->
<svg version="1.1" id="Layer_1" xmlns="http://www.w3.org/2000/svg" xmlns:xlink="http://www.w3.org/1999/xlink" x="0px" y="0px"
	 viewBox="0 0 100 100" style="enable-background:new 0 0 100 100;" xml:space="preserve">

<g>
	<path fill="currentColor" d="M0.4,47.5c0.3-2.2,0.6-4.4,1-6.6C6.5,14.1,32.5-3.5,59.3,1.7s44.4,31.1,39.2,57.9S67.5,104,40.6,98.8
		C20.4,95,4.7,79,1.2,58.7c-0.4-2-0.5-3.9-0.8-5.9L0.4,47.5z"/>
	<path fill="#FFFF" d="M78,25.2v1.5c0,6.9,0,13.8,0,20.7c-0.1,0.7,0.3,1.5,1.1,1.6c0,0,0.1,0,0.1,0c1.8,0.5,3.5,1.1,5.4,1.8
		C81.3,60.5,78.2,70.2,75,80L17.4,61.3l1.6-5.2l-1.6-0.2V25.2H78z M68.7,27.2H26.6c-0.3,4.4-2.7,6.8-7,7.1v12.5c4.4,0.3,6.7,2.7,7,7
		h42.1c0.6-4.5,1.8-5.7,7-7.1V34.3C71,33.6,69.3,31.9,68.7,27.2L68.7,27.2z M26.7,62.2l40.1,13c1.7-4.2,4.7-5.6,9-4.6
		c1.3-4,2.6-8,3.8-11.7c-1.2-0.8-2.1-1.6-3.1-2.3c-0.5-0.4-1-0.6-1.6-0.7c-3.7-0.1-7.3,0-11,0h-3.6c-1.8,5.6-5.1,8.4-9.8,8.3
		s-8-2.8-9.7-8.3H26C27.2,57.9,27.4,60.2,26.7,62.2L26.7,62.2z M47.3,57.5l-0.5,2.1l3.1,0.8L50,62h1.8c-0.3-1.3,0.1-1.9,1.3-2.3
		c1.5-0.5,2.2-2.1,1.7-3.6c0,0,0,0,0-0.1H52c0.3,1.7-0.3,2.3-2.1,2.1C49.1,58,48.3,57.8,47.3,57.5L47.3,57.5z"/>
	<path fill="#FFFF" d="M38.6,39.6c0-5.4,4.3-9.8,9.7-9.8s9.8,4.3,9.8,9.7s-4.3,9.8-9.7,9.8S38.6,45,38.6,39.6z M49.6,47
		c-0.5-1.5,0.5-1.9,1.6-2.5c1.5-0.8,2.2-2.7,1.4-4.2c-0.3-0.6-0.8-1.1-1.4-1.4c-0.8-0.4-1.7-0.7-2.4-1.1c-0.5-0.3-1.1-0.5-1.1-1.3
		c0.3-1.1,1.1-0.8,1.7-0.8c0.9,0.1,1.7,0.2,2.6,0.4l0.5-2l-2.6-0.7l-0.2-1.4H48c-0.2,1.4-0.2,1.4-1.6,2.2c-1.5,0.7-2.1,2.5-1.4,4
		c0.3,0.6,0.8,1.1,1.3,1.4c0.8,0.4,1.6,0.8,2.5,1.1c0.7,0.3,1.4,0.9,1,1.7s-1,0.7-1.5,0.7c-1.1-0.1-2.1-0.3-3.2-0.5l-0.5,2l3.1,0.9
		l0.2,1.6L49.6,47z"/>
</g>
</svg>
