<?xml version="1.0" encoding="utf-8"?>
<!-- Generator: Adobe Illustrator 24.2.3, SVG Export Plug-In . SVG Version: 6.00 Build 0)  -->
<svg version="1.1" id="Layer_1" xmlns="http://www.w3.org/2000/svg" xmlns:xlink="http://www.w3.org/1999/xlink" x="0px" y="0px"
	 viewBox="0 0 100 100" style="enable-background:new 0 0 100 100;" xml:space="preserve">
<style type="text/css">
	.st1{fill:#FFFFFF;}
</style>
<g>
	<path fill="currentColor" d="M99.5,50c0,27.4-22.2,49.5-49.5,49.5S0.5,77.4,0.5,50c0-27.3,22.1-49.5,49.5-49.5C77.3,0.4,99.5,22.6,99.5,50
		C99.5,50,99.5,50,99.5,50z"/>
</g>
<path fill="#FFFF" d="M51.2,51.5h9.5c3.7,0,5.8,2.3,5.6,6c-0.1,2.5-1.7,4.7-4,5.5l-1.2-1.5c2-0.3,3.3-2,3.2-4c0.2-2-1.3-3.8-3.4-4
	c-0.2,0-0.4,0-0.6,0c-8.2,0-16.4,0-24.7,0c-5.6,0-7.4-4.8-5.8-9c0.6-1.6,2-2.7,3.7-2.8c3.1-0.2,6.2-0.2,9.3-0.2c2,0,3.1,1.5,3.1,3.6
	c0,1.8-1.1,2.9-3.1,3.1c-1.5,0.1-3.1,0.1-4.7,0c-0.9-0.2-1.8-0.5-2.6-0.9v-0.4l1.4-1c1.6,0.8,3.4,0.6,5.3,0.6c0.9,0,1.7-0.4,1.6-1.5
	c0.1-0.8-0.5-1.5-1.4-1.6c-0.1,0-0.2,0-0.2,0c-2.7,0-5.4-0.1-8.1,0c-2,0.1-3.1,1.7-3.1,4s1.5,4.1,3.6,4.1c4.8,0.1,9.6,0,14.5,0V35.1
	c-3.7-1.3-5.5-3.8-5-6.9c0.4-3.3,3.3-5.7,6.6-5.3c2.6,0.3,4.8,2.3,5.2,4.9c0.7,3.4-0.9,5.8-5,7.4C51.2,40.5,51.2,45.9,51.2,51.5z"/>
<path fill="#FFFF" d="M49.2,75.6h2v6.3c2.2-0.3,3.7-2.4,3.5-4.6c-0.1-2.1-1.9-3.8-4.1-3.7c-2,0-4,0-6,0c-3,0-5.4-2.5-5.4-5.5
	c0-0.7,0.1-1.3,0.4-1.9c0.4-1.2,1.3-0.4,1.9-0.6c-0.1,1-0.1,2.1,0,3.1c0.2,1.6,1.5,2.7,3.1,2.9c0.3,0,0.7,0,1,0h3.6v-5.6h2.1
	c0,1.6,0,3.2,0,4.8c0,0.7,0.1,1,0.9,1.3c3.2,1,4.9,4.3,4,7.5c-0.6,1.9-2.1,3.4-4,3.9c-0.7,0.2-1,0.5-0.9,1.2s0,1.6,0,2.5h-2v-3.4
	c-3.5-1.5-5-3.4-4.8-6.4c0.1-1.7,0.3-1.9,2.1-1.7c-0.7,1.4-0.6,3.2,0.3,4.5c0.6,0.7,1.3,1.3,2,1.8l0.3-0.2L49.2,75.6z"/>
<path fill="#FFFF" d="M80.6,30.2h-5c-3.8,0-7.7,0-11.5,0c-0.6-0.1-1.2,0.3-1.4,0.8c-1,2.1-2.1,4.1-3.1,6.2c-0.2,0.6-0.8,0.9-1.3,0.9
	c-1.5-0.1-3,0-4.6,0v-1.7c1,0,2.1,0,3.1,0c0.6,0.1,1.3-0.3,1.5-0.9c1.1-2.1,2.2-4.3,3.3-6.3c0.2-0.4,0.6-0.7,1.1-0.8
	c6.5,0,13,0,19.5,0c0.2,0,0.3,0,0.4,0.1c0.3,2.1-0.8,4.1-2.7,5c-1.1,0.5-2.3,0.8-3.6,0.9c-0.6,0.1-1,0.2-1.2,0.9
	c-0.5,1.8-2.2,3.1-4.1,3.1c-2.3,0.1-4.7,0-7.1,0v-1.8c1.9,0,3.7,0.1,5.6,0c1-0.1,2-0.3,3-0.7c0.4-0.2,0.7-0.7,1.2-1.3h-3.5v-2
	c2.3,0,4.4,0,6.6,0C78.5,32.6,79.9,31.6,80.6,30.2z"/>
<path fill="#FFFF" d="M20.3,30.3c0.7,1.4,2.1,2.2,3.7,2.2c2.2,0,4.4,0,6.6,0v2h-3.3c0.4,1.1,1.4,1.9,2.5,1.9c1.8,0.1,3.7,0.1,5.5,0.1
	c0.5,0,1,0,1.5,0v1.7c-2.5,0-5.1,0.1-7.6,0c-1.7-0.2-3.2-1.3-3.7-3c-0.2-0.4-0.6-0.7-1-0.8c-1.2-0.2-2.3-0.5-3.5-0.9
	c-2-0.9-3.2-3-3-5.1c0.4,0,0.7,0,1.1,0c6.2,0,12.4,0,18.6,0c0.7-0.1,1.3,0.4,1.5,1c1,2,2.1,4,3.1,6.1c0.3,0.8,1.2,1.2,1.9,0.9
	c0.9-0.1,1.9,0,2.9,0v1.7c-1.7,0-3.4,0-5.1,0c-0.3,0-0.6-0.4-0.8-0.7c-1.1-2.1-2.1-4.3-3.2-6.3c-0.2-0.4-0.6-0.7-1.1-0.8
	c-5.4,0-10.9,0-16.3,0C20.6,30.3,20.5,30.3,20.3,30.3z"/>
<path fill="#FFFF" d="M49.3,61.5v-6h2v6h4c3.2,0,5.1,1.5,5.6,4.6c0.6,3-1.1,5.9-3.9,7l-1-1.4c0.8-0.7,1.9-1.2,2.4-2
	c0.5-0.9,0.7-2,0.5-3.1c-0.1-1.9-1.8-3.3-3.6-3.2c0,0,0,0-0.1,0c-5.1,0-10.1,0-15.2,0c-3.7,0-6-2.6-5.5-6.3c0.2-1.7,0.4-1.8,2.1-1.6
	c-0.1,1-0.1,2,0,2.9c0.2,1.6,1.5,2.9,3.1,3c2.8,0.1,5.5,0,8.3,0L49.3,61.5z"/>
<path fill="#FFFF" d="M63.4,45.7l1.2,1.1c-0.6,0.9-1.5,1.4-2.6,1.4c-1.5,0-3.1,0.1-4.7,0c-2-0.1-3.1-1.3-3.1-3.1
	c0-2.2,1.1-3.6,3.1-3.6c3.1-0.1,6.1-0.1,9.2,0.2c2.8,0.3,4.8,2.9,4.5,5.7c0,0.2-0.1,0.5-0.1,0.7c-0.3,1.4-1,2.7-1.9,3.8
	c-1.3,1.6-2,1.5-3.2-0.3c0.4-0.2,0.7-0.3,1.1-0.5c1.8-1,2.7-3.1,2.2-5.1c-0.4-1.7-1.8-2.7-3.8-2.7c-2.1,0-4.4,0-6.6,0
	c-0.5-0.1-1,0-1.4,0.2c-0.5,0.4-0.8,1-0.9,1.6c0.1,0.5,0.5,1,1,1.2C59.4,46.7,61.5,46.6,63.4,45.7z"/>
</svg>
