<?xml version="1.0" encoding="utf-8"?>
<!-- Generator: Adobe Illustrator 24.2.3, SVG Export Plug-In . SVG Version: 6.00 Build 0)  -->
<svg version="1.1" id="Layer_1" xmlns="http://www.w3.org/2000/svg" xmlns:xlink="http://www.w3.org/1999/xlink" x="0px" y="0px"
	 viewBox="0 0 100 100" style="enable-background:new 0 0 100 100;" xml:space="preserve">

<path fill="currentColor" d="M99.5,49.9c0,27.4-22.2,49.5-49.5,49.5S0.4,77.2,0.4,49.9c0-27.3,22.1-49.5,49.5-49.5
	C77.3,0.3,99.5,22.5,99.5,49.9C99.5,49.9,99.5,49.9,99.5,49.9z"/>
<path fill="#FFFF" d="M35.1,32.2v-5c0-5.3,3.5-8.8,8.9-8.8c4.5,0,8.9,0,13.4,0c5.2,0,8.7,3.5,8.8,8.7c0,1.7,0,3.3,0,5.2h1.4
	c2.6,0,5.2,0,7.8,0c2.9,0,4.6,1.7,4.6,4.6v35.8c0,2.9-1.7,4.6-4.6,4.6H26c-3,0-4.6-1.6-4.6-4.7V37c0-3.2,1.6-4.8,4.8-4.8
	C26.1,32.2,35.1,32.2,35.1,32.2z"/>
<path fill="currentColor" d="M39.7,50.8h7.4v-7.2h7.5v7.2H62v7.6h-7.4v7.2h-7.5v-7.2h-7.4V50.8z"/>
<path fill="currentColor" d="M40.3,34.2c0-2.7-0.1-5.3,0-7.9c0.1-1.6,1.4-2.8,3-2.7c4.9,0,9.7,0,14.6,0c1.7,0,3.1,1.4,3,3.1
	c0.1,2.5,0,4.9,0,7.5H40.3z"/>
</svg>
