<?xml version="1.0" encoding="utf-8"?>
<!-- Generator: Adobe Illustrator 25.0.0, SVG Export Plug-In . SVG Version: 6.00 Build 0)  -->
<svg version="1.1" id="Layer_1" xmlns="http://www.w3.org/2000/svg" xmlns:xlink="http://www.w3.org/1999/xlink" x="0px" y="0px"
	 viewBox="0 0 100 100" style="enable-background:new 0 0 100 100;" xml:space="preserve">

<g>
	<path fill="currentColor" d="M0.4,50.3c0-27.4,22.1-49.7,49.5-49.8C77.4,0.4,99.6,22.6,99.7,50S77.6,99.7,50.2,99.8c-0.1,0-0.1,0-0.2,0
		C22.7,99.8,0.5,77.7,0.4,50.3z"/>
	<path fill="#FFFF" d="M76.2,63.4c0-2.6-1.2-5-3.3-6.4c-1.2-0.8-2.7-1.2-4.2-1.1c-3.5,0.3-5.9,3-6.5,7.5h-30c0-2.5-1.2-4.9-3.2-6.3
		c-1.2-0.9-2.6-1.3-4.1-1.2c-1.9,0.1-3.7,1-4.9,2.6c-1.2,1.2-1.9,2.8-1.8,4.5c-2.3-0.2-3.5,0.2-5-0.4c-0.2-0.1-0.2-0.7-0.2-1
		c-0.2-4.4-0.2-8-0.1-12.5c0.1-1,0.4-2,1-2.8c0.4-0.7,1.1-1.2,1.9-1.5c2.9-0.7,5.4-2.4,7.1-4.8c1.2-1.5,2.4-3,3.8-4.4
		c0.8-0.8,1.3-1.3,2.1-2c1-1,2.1-1.5,2.1-3.4c0-1.2,1.5-2.1,2.8-2.1c1.3,0,2.5,0.9,2.8,2.1c0.1,0.5,0.2,0.9,0.2,1.6h47.2v31.6
		C83.9,63.4,76.2,63.4,76.2,63.4z M34.5,33.8c0.1-0.9,0.1-1.7,0-2.6c-0.1-0.4-0.3-1.1-0.9-1.2c-0.9,0.1-0.9,0.5-1.1,1
		c0,0.7,0,1.4,0,2.1c-0.1,0.3-0.3,0.6-0.5,0.8c-1.3,0.9-2.5,1.9-3.6,3c-1.4,1.4-2.8,2.9-4.1,4.5c-1.8,2.5-4.4,4.4-7.4,5.2
		c-0.9,0.1-1.7,0.8-1.9,1.8c-0.2,0.5-0.3,1.1-0.3,1.6c0,3.2,0,6.3-0.1,9.4c0,1.3,0.6,1.7,1.8,1.7c1.6-4.5,4.3-7,8.1-7.1
		c5.3-0.2,8.1,2.8,9.5,7.5c0.2,0,0.4,0,0.5,0c8.3,0,16.6,0,24.8,0c0.7,0,1-0.2,1.2-1c1.5-5,6.3-7.8,11-6.3c3,0.9,5.3,3.3,6.1,6.3
		c0.1,0.3,0.4,0.9,0.7,0.9c1.1,0.1,2.3,0,3.5,0V33.8H34.5z"/>
	<path fill="#FFFF" d="M25,56.3c3.4,0,6.1,2.7,6.1,6.1s-2.7,6.1-6.1,6.1s-6.1-2.7-6.1-6.1S21.7,56.3,25,56.3z"/>
	<path fill="#FFFF" d="M75.5,62.7c0,3.4-2.7,6.2-6.1,6.2l0,0c-3.4-0.1-6.1-2.8-6.2-6.2c0.1-3.3,2.8-6,6.1-6
		C72.8,56.7,75.5,59.4,75.5,62.7z"/>
	<path fill="#FFFF" d="M60.8,47.2V35.7h16.8v11.4L60.8,47.2z M62.8,37.7v7.5h12.7v-7.5H62.8z"/>
	<path fill="#FFFF" d="M40.4,34.3v12.3H22.3c0.3-0.4,0.5-0.7,0.7-0.9c3.1-3.6,6.2-7.2,9.3-10.8c0.2-0.3,0.6-0.5,0.9-0.6
		C35.6,34.3,38,34.3,40.4,34.3z M38.4,44.6v-8.1c-2.7-0.1-4.3-0.7-6.7,2.2c-0.4,0.5-0.9,1.1-1.4,1.6l-3.7,4.3H38.4z"/>
	<path fill="#FFFF" d="M43.8,47.2V35.8h15.5v11.4C59.3,47.2,43.8,47.2,43.8,47.2z M57.2,37.7H45.8v7.5h11.4
		C57.2,45.2,57.2,37.7,57.2,37.7z"/>
	<path fill="#FFFF" d="M44.2,53.7c-0.1-3.5,2.7-6.3,6.1-6.4s6.3,2.7,6.4,6.1c0,0.2,0,0.3,0,0.5c-0.2,3.5-3.1,6.1-6.6,6
		C46.9,59.7,44.3,57,44.2,53.7z M50.6,49.6c-2.3,0-4.3,1.8-4.3,4.1c0.1,2.4,2.1,4.2,4.5,4.1c2.2-0.1,4-1.8,4.1-4
		C54.8,51.5,53,49.6,50.6,49.6L50.6,49.6L50.6,49.6z"/>
	<path fill="#FFFF" d="M33.5,51.5v-3.1h6.2v3.1H33.5z"/>
	<path fill="#FFFF" d="M49.7,54.7c-0.6,0-1.2,0-1.7-0.1v-1.8c0.5,0,1.1,0,1.7-0.1c0.1-0.6,0-1.2,0.1-1.8h1.6c0,0.6,0,1.2,0,1.8
		c0.6,0,1.1,0,1.7,0v1.9c-0.5,0-1.1,0-1.7,0c0,0.6,0,1.2-0.1,1.8h-1.6C49.7,56,49.8,55.4,49.7,54.7z"/>
</g>
</svg>
