<?xml version="1.0" encoding="utf-8"?>
<!-- Generator: Adobe Illustrator 25.0.0, SVG Export Plug-In . SVG Version: 6.00 Build 0)  -->
<svg version="1.1" id="Layer_1" xmlns="http://www.w3.org/2000/svg" xmlns:xlink="http://www.w3.org/1999/xlink" x="0px" y="0px"
	 viewBox="0 0 100 100" style="enable-background:new 0 0 100 100;" xml:space="preserve">

<g>
	<path fill="currentColor" d="M53,0.4c2.2,0.3,4.3,0.6,6.5,1c19.4,3.5,35.4,19.5,39,39c4.9,26.4-11.4,51.5-37.4,57.6
		C34,104.4,6.7,86.6,1.5,59.1c-0.4-2.1-0.6-4.3-0.9-6.5c0-1.8,0-3.7,0-5.5c0.3-2.2,0.6-4.5,1-6.7C5,21,21.2,4.9,40.6,1.4
		c2.1-0.4,4.3-0.6,6.5-1C49,0.4,51,0.4,53,0.4z"/>
	<path fill="#FFFF" d="M50.5,21.8c5.5,0,11.1,0,16.6,0c1.9,0,3.4,0.6,4.6,2.1c1.9,2.2,3.9,4.2,5.7,6.5c0.7,0.8,1.3,2,1.3,3.1
		c0.1,4.8,0.2,9.7-0.1,14.5c-0.5,9.4-4.5,17.4-10.8,24.3c-4.3,4.6-9.4,8.2-15,10.9c-1.4,0.7-2.8,0.9-4.3,0.2
		C38,78.4,29.8,71,25.1,60.2c-2-4.5-2.9-9.3-3-14.2c0-3.9,0-7.9,0-11.8c0-1.4,0.4-2.6,1.4-3.7c1.9-2.2,3.9-4.3,5.8-6.5
		c1.2-1.3,2.6-1.9,4.3-1.9C39.3,21.8,44.9,21.8,50.5,21.8z M50.5,23.8c-5.6,0-11.2,0-16.8,0c-1.3,0-2.2,0.4-3,1.3
		c-1.8,2.1-3.6,4.1-5.4,6.1c-0.8,0.9-1.2,1.8-1.2,3c0,3.7,0,7.3,0,11c0,4.5,0.7,8.8,2.4,13C31,69.1,39,76.4,49.4,81.3
		c0.7,0.3,1.8,0.2,2.6-0.2c5.4-2.5,10.3-6,14.4-10.4c5.6-6,9.4-13,10.1-21.3c0.4-5.4,0.2-10.8,0.2-16.3c0-0.6-0.4-1.3-0.9-1.8
		c-1.8-2.1-3.8-4.2-5.6-6.4c-0.8-0.9-1.7-1.3-2.9-1.3C61.7,23.9,56.1,23.8,50.5,23.8z"/>
	<path fill="#FFFF" d="M43.4,46.3c0-1.1,0-2.1,0-3c0-4,2.8-6.9,6.9-7.3c3.8-0.4,7.5,2.3,8.2,6c0.3,1.4,0.2,2.8,0.3,4.3
		c0.1,0,0.2,0.1,0.3,0.1c2.4-0.2,2.6,0.6,2.6,2.7c-0.1,3.5,0,7,0,10.5c0,1.6-0.7,2.4-2.3,2.4c-5.5,0-11.1,0-16.6,0
		c-1.5,0-2.2-0.8-2.2-2.3c0-3.7,0-7.3,0-11c0-2,0.2-2.2,2.3-2.3C42.9,46.3,43.1,46.3,43.4,46.3z M55.4,46.3c-0.1-1.3,0-2.6-0.2-3.8
		c-0.4-1.9-2.3-3.3-4.2-3.2c-2,0.1-3.9,1.4-4.1,3.2c-0.2,1.2,0,2.5,0,3.8C49.7,46.3,52.4,46.3,55.4,46.3z M50.5,56.1
		c0.3,0,0.9,0,1.2,0c0.4-1,0.8-1.8,1.1-2.7c0.3-0.8,0.1-1.6-0.6-2.1c-0.8-0.6-1.6-0.6-2.3,0s-0.8,1.3-0.5,2.2
		C49.7,54.3,50.1,55.1,50.5,56.1z"/>
</g>
</svg>
